<?xml version="1.0" encoding="UTF-8"?>
<svg version="1.1" xmlns="http://www.w3.org/2000/svg" width="800" height="800">
<path d="M0 0 C0.84457764 0.11754639 1.68915527 0.23509277 2.55932617 0.35620117 C8.20012776 1.23363428 13.39115709 2.74431861 18.75 4.6875 C20.28236462 5.22319279 21.81491693 5.75834901 23.34765625 6.29296875 C24.83622731 6.81949388 26.32450991 7.34683524 27.8125 7.875 C28.58271484 8.14763672 29.35292969 8.42027344 30.14648438 8.70117188 C32.01458258 9.36254826 33.88232957 10.02491657 35.75 10.6875 C35.75 11.3475 35.75 12.0075 35.75 12.6875 C36.82894531 12.85572266 36.82894531 12.85572266 37.9296875 13.02734375 C55.50323275 17.14081902 70.82504853 34.29718484 82.8125 47 C83.34858887 47.56219238 83.88467773 48.12438477 84.43701172 48.70361328 C92.75 57.6879844 92.75 57.6879844 92.75 62.6875 C93.41 62.6875 94.07 62.6875 94.75 62.6875 C95.92407021 64.95477333 97.08939739 67.22584624 98.25 69.5 C98.75080078 70.46389648 98.75080078 70.46389648 99.26171875 71.44726562 C100.75239084 74.38297699 101.75 76.34876517 101.75 79.6875 C102.41 79.6875 103.07 79.6875 103.75 79.6875 C108.14453125 92.87109375 108.14453125 92.87109375 108.94433594 95.27978516 C109.48184589 96.88612551 110.02679056 98.489997 110.57910156 100.09130859 C121.15502712 130.96035627 116.3774129 168.76394517 102.71728516 197.8894043 C101.67665016 199.98647094 100.60105793 202.0590548 99.5 204.125 C99.11521484 204.85146729 98.73042969 205.57793457 98.33398438 206.32641602 C95.37673997 211.79017915 92.07323518 216.75551777 88.28125 221.68359375 C86.7117009 223.60766749 86.7117009 223.60766749 85.75 225.6875 C85.09 225.6875 84.43 225.6875 83.75 225.6875 C83.49863281 226.25339844 83.24726563 226.81929687 82.98828125 227.40234375 C79.0348122 234.69817779 72.17361192 240.40463547 65.9375 245.75 C65.38666748 246.22703369 64.83583496 246.70406738 64.26831055 247.19555664 C61.44609575 249.55795062 59.31012609 250.88252976 55.75 251.6875 C55.42 252.6775 55.09 253.6675 54.75 254.6875 C53.03857422 255.95849609 53.03857422 255.95849609 50.8046875 257.2109375 C49.57069214 257.90316406 49.57069214 257.90316406 48.31176758 258.609375 C47.42513428 259.08890625 46.53850098 259.5684375 45.625 260.0625 C44.27088013 260.80113281 44.27088013 260.80113281 42.8894043 261.5546875 C35.34925324 265.56649866 27.93769467 268.31908211 19.75 270.6875 C18.28140265 271.19066798 16.8140216 271.69739525 15.34765625 272.20703125 C-9.46812469 280.51118539 -38.29988044 278.18639864 -63.25 271.6875 C-63.25 271.0275 -63.25 270.3675 -63.25 269.6875 C-65.10625 269.3471875 -65.10625 269.3471875 -67 269 C-73.05925829 267.67604723 -78.59891308 265.19271958 -84.25 262.6875 C-84.25 262.0275 -84.25 261.3675 -84.25 260.6875 C-84.96929687 260.58179688 -85.68859375 260.47609375 -86.4296875 260.3671875 C-89.5218047 259.62199582 -91.67156073 258.47424707 -94.375 256.8125 C-95.64730469 256.04292969 -95.64730469 256.04292969 -96.9453125 255.2578125 C-99.25 253.6875 -99.25 253.6875 -100.7421875 252.1796875 C-102.27220749 250.54527986 -102.27220749 250.54527986 -104.6171875 249.28125 C-107.53426222 247.51542435 -109.86408295 245.49109362 -112.375 243.1875 C-113.22320312 242.4140625 -114.07140625 241.640625 -114.9453125 240.84375 C-115.70585938 240.1321875 -116.46640625 239.420625 -117.25 238.6875 C-118.14332031 237.86765625 -118.14332031 237.86765625 -119.0546875 237.03125 C-120.25 235.6875 -120.25 235.6875 -120.25 233.6875 C-120.83007812 233.45160156 -121.41015625 233.21570313 -122.0078125 232.97265625 C-138.04964943 223.77794484 -148.62209942 195.54823826 -153.68603516 178.76806641 C-155.02317143 173.83513336 -155.83788808 168.79524522 -156.671875 163.7578125 C-156.92541669 160.82406669 -156.92541669 160.82406669 -158.25 159.6875 C-159.33561924 152.3481023 -159.40048856 145.09617418 -159.375 137.6875 C-159.37886719 136.5634375 -159.38273438 135.439375 -159.38671875 134.28125 C-159.37624919 125.31930743 -158.88372201 117.28472114 -156.25 108.6875 C-155.83435403 107.06226992 -155.42883939 105.43442891 -155.03125 103.8046875 C-154.82113281 102.94746094 -154.61101562 102.09023437 -154.39453125 101.20703125 C-153.96304621 99.43663505 -153.53337319 97.66579629 -153.10546875 95.89453125 C-152.07156858 91.68915818 -151.02800042 87.655075 -149.25 83.6875 C-148.59 83.6875 -147.93 83.6875 -147.25 83.6875 C-147.14816406 83.00300781 -147.04632813 82.31851563 -146.94140625 81.61328125 C-146.11230008 78.10480374 -144.7327768 75.12994474 -143.1875 71.875 C-142.63964844 70.71355469 -142.09179688 69.55210938 -141.52734375 68.35546875 C-140.89505859 67.03482422 -140.89505859 67.03482422 -140.25 65.6875 C-139.59 65.6875 -138.93 65.6875 -138.25 65.6875 C-138.023125 64.841875 -137.79625 63.99625 -137.5625 63.125 C-136.05761382 59.18363144 -134.12296745 55.79988141 -131.25 52.6875 C-130.59 52.6875 -129.93 52.6875 -129.25 52.6875 C-129.023125 52.171875 -128.79625 51.65625 -128.5625 51.125 C-124.10669882 42.84994067 -117.89447292 37.03248575 -110.43359375 31.43359375 C-108.22662969 29.74401859 -108.22662969 29.74401859 -106.390625 27.76953125 C-92.88667184 14.63521185 -74.0298702 7.62901958 -56.13110352 3.18798828 C-54.45614062 2.74234598 -52.81025011 2.1905305 -51.171875 1.625 C-35.29922332 -3.46782942 -16.2577969 -2.26660749 0 0 Z " fill="#FAC428" transform="translate(162.25,1.3125)"/>
<path d="M0 0 C0.84457764 0.11754639 1.68915527 0.23509277 2.55932617 0.35620117 C8.20012776 1.23363428 13.39115709 2.74431861 18.75 4.6875 C20.28236462 5.22319279 21.81491693 5.75834901 23.34765625 6.29296875 C24.83622731 6.81949388 26.32450991 7.34683524 27.8125 7.875 C28.58271484 8.14763672 29.35292969 8.42027344 30.14648438 8.70117188 C32.01458258 9.36254826 33.88232957 10.02491657 35.75 10.6875 C35.75 11.3475 35.75 12.0075 35.75 12.6875 C36.82894531 12.85572266 36.82894531 12.85572266 37.9296875 13.02734375 C55.50323275 17.14081902 70.82504853 34.29718484 82.8125 47 C83.34858887 47.56219238 83.88467773 48.12438477 84.43701172 48.70361328 C92.75 57.6879844 92.75 57.6879844 92.75 62.6875 C93.41 62.6875 94.07 62.6875 94.75 62.6875 C95.92407021 64.95477333 97.08939739 67.22584624 98.25 69.5 C98.75080078 70.46389648 98.75080078 70.46389648 99.26171875 71.44726562 C100.75239084 74.38297699 101.75 76.34876517 101.75 79.6875 C102.41 79.6875 103.07 79.6875 103.75 79.6875 C108.14453125 92.87109375 108.14453125 92.87109375 108.94433594 95.27978516 C109.48184589 96.88612551 110.02679056 98.489997 110.57910156 100.09130859 C121.15502712 130.96035627 116.3774129 168.76394517 102.71728516 197.8894043 C101.67665016 199.98647094 100.60105793 202.0590548 99.5 204.125 C99.11521484 204.85146729 98.73042969 205.57793457 98.33398438 206.32641602 C95.37673997 211.79017915 92.07323518 216.75551777 88.28125 221.68359375 C86.7117009 223.60766749 86.7117009 223.60766749 85.75 225.6875 C85.09 225.6875 84.43 225.6875 83.75 225.6875 C83.49863281 226.25339844 83.24726562 226.81929687 82.98828125 227.40234375 C79.0348122 234.69817779 72.17361192 240.40463547 65.9375 245.75 C65.38666748 246.22703369 64.83583496 246.70406738 64.26831055 247.19555664 C61.44609575 249.55795062 59.31012609 250.88252976 55.75 251.6875 C55.42 252.6775 55.09 253.6675 54.75 254.6875 C53.03857422 255.95849609 53.03857422 255.95849609 50.8046875 257.2109375 C49.57069214 257.90316406 49.57069214 257.90316406 48.31176758 258.609375 C47.42513428 259.08890625 46.53850098 259.5684375 45.625 260.0625 C44.27088013 260.80113281 44.27088013 260.80113281 42.8894043 261.5546875 C35.34925324 265.56649866 27.93769467 268.31908211 19.75 270.6875 C19.16333557 270.93207443 18.57667114 271.17664886 17.972229 271.42863464 C10.69453535 274.33687837 3.44354063 274.10599528 -4.28515625 274.05078125 C-5.73286437 274.0502614 -7.18057321 274.05078392 -8.62828064 274.05229187 C-11.64821036 274.05220263 -14.66787043 274.0418725 -17.68774414 274.02368164 C-21.53969874 274.00097577 -25.39126104 274.00045938 -29.2432642 274.00719929 C-32.22801643 274.01055575 -35.2126808 274.00387808 -38.19741631 273.99407005 C-39.61704485 273.99024818 -41.03668321 273.98905719 -42.45631599 273.9906559 C-49.69820396 273.9920201 -56.32068923 273.90318144 -63.25 271.6875 C-63.25 271.0275 -63.25 270.3675 -63.25 269.6875 C-65.10625 269.3471875 -65.10625 269.3471875 -67 269 C-73.05925829 267.67604723 -78.59891308 265.19271958 -84.25 262.6875 C-84.25 262.0275 -84.25 261.3675 -84.25 260.6875 C-84.96929688 260.58179688 -85.68859375 260.47609375 -86.4296875 260.3671875 C-89.5218047 259.62199582 -91.67156073 258.47424707 -94.375 256.8125 C-95.64730469 256.04292969 -95.64730469 256.04292969 -96.9453125 255.2578125 C-99.25 253.6875 -99.25 253.6875 -100.7421875 252.1796875 C-102.27220749 250.54527986 -102.27220749 250.54527986 -104.6171875 249.28125 C-107.53426222 247.51542435 -109.86408295 245.49109362 -112.375 243.1875 C-113.22320313 242.4140625 -114.07140625 241.640625 -114.9453125 240.84375 C-115.70585938 240.1321875 -116.46640625 239.420625 -117.25 238.6875 C-118.14332031 237.86765625 -118.14332031 237.86765625 -119.0546875 237.03125 C-120.25 235.6875 -120.25 235.6875 -120.25 233.6875 C-120.83007812 233.45160156 -121.41015625 233.21570313 -122.0078125 232.97265625 C-138.04964943 223.77794484 -148.62209942 195.54823826 -153.68603516 178.76806641 C-155.02317143 173.83513336 -155.83788808 168.79524522 -156.671875 163.7578125 C-156.92541669 160.82406669 -156.92541669 160.82406669 -158.25 159.6875 C-159.33561924 152.3481023 -159.40048856 145.09617418 -159.375 137.6875 C-159.37886719 136.5634375 -159.38273438 135.439375 -159.38671875 134.28125 C-159.37624919 125.31930743 -158.88372201 117.28472114 -156.25 108.6875 C-155.83435403 107.06226992 -155.42883939 105.43442891 -155.03125 103.8046875 C-154.82113281 102.94746094 -154.61101563 102.09023438 -154.39453125 101.20703125 C-153.96304621 99.43663505 -153.53337319 97.66579629 -153.10546875 95.89453125 C-152.07156858 91.68915818 -151.02800042 87.655075 -149.25 83.6875 C-148.59 83.6875 -147.93 83.6875 -147.25 83.6875 C-147.14816406 83.00300781 -147.04632812 82.31851563 -146.94140625 81.61328125 C-146.11230008 78.10480374 -144.7327768 75.12994474 -143.1875 71.875 C-142.63964844 70.71355469 -142.09179688 69.55210937 -141.52734375 68.35546875 C-140.89505859 67.03482422 -140.89505859 67.03482422 -140.25 65.6875 C-139.59 65.6875 -138.93 65.6875 -138.25 65.6875 C-138.023125 64.841875 -137.79625 63.99625 -137.5625 63.125 C-136.05761382 59.18363144 -134.12296745 55.79988141 -131.25 52.6875 C-130.59 52.6875 -129.93 52.6875 -129.25 52.6875 C-129.023125 52.171875 -128.79625 51.65625 -128.5625 51.125 C-124.10669882 42.84994067 -117.89447292 37.03248575 -110.43359375 31.43359375 C-108.22662969 29.74401859 -108.22662969 29.74401859 -106.390625 27.76953125 C-92.88667184 14.63521185 -74.0298702 7.62901958 -56.13110352 3.18798828 C-54.45614062 2.74234598 -52.81025011 2.1905305 -51.171875 1.625 C-35.29922332 -3.46782942 -16.2577969 -2.26660749 0 0 Z " fill="#FAC428" transform="translate(679.25,525.3125)"/>
<path d="M0 0 C1.12077438 0.00223572 1.12077438 0.00223572 2.26419067 0.0045166 C17.7298499 0.05997058 31.91239935 1.26203754 46.3125 7.3125 C47.5743779 7.81019929 48.83749229 8.3047704 50.1015625 8.796875 C55.95844076 11.09042314 61.7169419 13.42474643 67.3125 16.3125 C67.3125 16.9725 67.3125 17.6325 67.3125 18.3125 C68.17746094 18.56386719 69.04242188 18.81523438 69.93359375 19.07421875 C73.49252504 20.3784745 76.23764617 22.00779219 79.375 24.125 C80.37660156 24.79144531 81.37820312 25.45789063 82.41015625 26.14453125 C85.33714597 28.33090984 87.77238047 30.69326199 90.3125 33.3125 C91.65503619 34.49253181 93.00834449 35.6604882 94.375 36.8125 C97.4066354 39.43537557 99.87494346 42.11846039 102.3125 45.3125 C103.075625 46.034375 103.83875 46.75625 104.625 47.5 C114.3125 57.6380814 114.3125 57.6380814 114.3125 62.3125 C114.9725 62.3125 115.6325 62.3125 116.3125 62.3125 C118.64839916 66.93094022 120.96512498 71.55817946 123.26074219 76.19677734 C124.17641577 78.0387521 125.10649796 79.87355028 126.0390625 81.70703125 C134.38661938 98.7232049 136.73642689 117.46778191 136.6875 136.25 C136.68762085 136.96739349 136.6877417 137.68478699 136.68786621 138.42391968 C136.65776222 151.0404679 135.46595766 163.05624894 132.3125 175.3125 C132.02375 176.44816406 131.735 177.58382812 131.4375 178.75390625 C127.66597998 191.39860062 120.74906364 203.49714984 113.3125 214.3125 C112.61640625 215.32957031 111.9203125 216.34664062 111.203125 217.39453125 C105.73130939 225.17289687 105.73130939 225.17289687 102.3125 226.3125 C101.60104424 227.62248203 100.94025567 228.96041086 100.3125 230.3125 C95.9057137 236.12764069 91.3625259 240.96249137 84.3125 243.3125 C84.065 243.90546875 83.8175 244.4984375 83.5625 245.109375 C81.67083747 248.44343021 78.58191258 249.78992691 75.3125 251.5625 C74.67054688 251.92601562 74.02859375 252.28953125 73.3671875 252.6640625 C68.60796523 255.3125 68.60796523 255.3125 66.3125 255.3125 C66.3125 255.9725 66.3125 256.6325 66.3125 257.3125 C57.55307577 261.67291823 48.48796502 264.68853272 39.19873047 267.671875 C37.19400145 268.32286065 37.19400145 268.32286065 34.859375 269.38671875 C11.87160007 277.74270442 -21.40376585 275.75747353 -43.6875 266.3125 C-45.60047974 265.63934011 -47.51355803 264.96644821 -49.42822266 264.2980957 C-58.12241862 261.21117461 -65.86706773 257.18071909 -73.6875 252.3125 C-74.55375 251.77367187 -75.42 251.23484375 -76.3125 250.6796875 C-81.12028325 247.57736791 -85.42486228 244.11740481 -89.6875 240.3125 C-90.33589844 239.76722656 -90.98429687 239.22195313 -91.65234375 238.66015625 C-95.8709295 235.08933799 -99.58415027 231.33785597 -103.14453125 227.109375 C-104.64989123 225.3066419 -104.64989123 225.3066419 -106.28125 223.73828125 C-108.61651347 221.37058357 -110.6875 218.70728033 -110.6875 215.3125 C-111.6775 214.9825 -112.6675 214.6525 -113.6875 214.3125 C-115.25117567 211.9178424 -116.64491688 209.57158383 -118 207.0625 C-118.39735352 206.33522705 -118.79470703 205.6079541 -119.20410156 204.85864258 C-120.38023971 202.68421551 -121.53690254 200.50052978 -122.6875 198.3125 C-123.26371094 197.22839844 -123.83992188 196.14429688 -124.43359375 195.02734375 C-128.59112555 186.65828623 -130.94967179 177.95495393 -133.07006836 168.89575195 C-133.51151497 167.04879797 -133.98473171 165.20932191 -134.47875977 163.37573242 C-136.69606425 154.76655644 -137.28498683 146.49234835 -137.25 137.625 C-137.25018127 136.91272247 -137.25036255 136.20044495 -137.25054932 135.46658325 C-137.19934938 121.20660696 -134.90539043 107.95890376 -130.6875 94.3125 C-130.43661621 93.49958496 -130.18573242 92.68666992 -129.92724609 91.84912109 C-126.98305634 82.64926859 -122.77075009 74.5266512 -117.6875 66.3125 C-116.37961352 63.93644747 -115.0960931 61.54987498 -113.828125 59.15234375 C-112.63122032 57.22172011 -111.31183927 55.89239217 -109.6875 54.3125 C-108.54551483 52.86742872 -107.42161259 51.40795244 -106.3125 49.9375 C-103.62886202 46.45995246 -100.87383323 43.34710308 -97.6875 40.3125 C-96.97207031 39.56484375 -96.25664063 38.8171875 -95.51953125 38.046875 C-94.72933594 37.22703125 -93.93914062 36.4071875 -93.125 35.5625 C-92.00931641 34.39460937 -92.00931641 34.39460937 -90.87109375 33.203125 C-88.6875 31.3125 -88.6875 31.3125 -86.53515625 30.796875 C-85.92542969 30.63703125 -85.31570312 30.4771875 -84.6875 30.3125 C-84.42710938 29.73242188 -84.16671875 29.15234375 -83.8984375 28.5546875 C-81.97591873 24.99492693 -78.71914411 23.48078067 -75.3125 21.4375 C-74.58933594 20.99768799 -73.86617187 20.55787598 -73.12109375 20.10473633 C-63.19103093 14.13241868 -53.47601087 9.66112246 -42.375 6.40625 C-39.53321306 5.56334709 -36.7786987 4.64658041 -34 3.625 C-23.02222011 -0.00557803 -11.43970319 -0.05643052 0 0 Z " fill="#DD5834" transform="translate(141.6875,523.6875)"/>
<path d="M0 0 C1.12077438 0.00223572 1.12077438 0.00223572 2.26419067 0.0045166 C17.7298499 0.05997058 31.91239935 1.26203754 46.3125 7.3125 C47.5743779 7.81019929 48.83749229 8.3047704 50.1015625 8.796875 C55.95844076 11.09042314 61.7169419 13.42474643 67.3125 16.3125 C67.3125 16.9725 67.3125 17.6325 67.3125 18.3125 C68.17746094 18.56386719 69.04242187 18.81523437 69.93359375 19.07421875 C73.49252504 20.3784745 76.23764617 22.00779219 79.375 24.125 C80.37660156 24.79144531 81.37820313 25.45789063 82.41015625 26.14453125 C85.33714597 28.33090984 87.77238047 30.69326199 90.3125 33.3125 C91.65503619 34.49253181 93.00834449 35.6604882 94.375 36.8125 C97.4066354 39.43537557 99.87494346 42.11846039 102.3125 45.3125 C103.075625 46.034375 103.83875 46.75625 104.625 47.5 C114.3125 57.6380814 114.3125 57.6380814 114.3125 62.3125 C114.9725 62.3125 115.6325 62.3125 116.3125 62.3125 C118.64839916 66.93094022 120.96512498 71.55817946 123.26074219 76.19677734 C124.17641577 78.0387521 125.10649796 79.87355028 126.0390625 81.70703125 C134.38661938 98.7232049 136.73642689 117.46778191 136.6875 136.25 C136.68762085 136.96739349 136.6877417 137.68478699 136.68786621 138.42391968 C136.65776222 151.0404679 135.46595766 163.05624894 132.3125 175.3125 C132.02375 176.44816406 131.735 177.58382812 131.4375 178.75390625 C127.66597998 191.39860062 120.74906364 203.49714984 113.3125 214.3125 C112.61640625 215.32957031 111.9203125 216.34664062 111.203125 217.39453125 C105.73130939 225.17289687 105.73130939 225.17289687 102.3125 226.3125 C101.60104424 227.62248203 100.94025567 228.96041086 100.3125 230.3125 C95.9057137 236.12764069 91.3625259 240.96249137 84.3125 243.3125 C84.065 243.90546875 83.8175 244.4984375 83.5625 245.109375 C81.67083747 248.44343021 78.58191258 249.78992691 75.3125 251.5625 C74.67054688 251.92601562 74.02859375 252.28953125 73.3671875 252.6640625 C68.60796523 255.3125 68.60796523 255.3125 66.3125 255.3125 C66.3125 255.9725 66.3125 256.6325 66.3125 257.3125 C57.55307577 261.67291823 48.48796502 264.68853272 39.19873047 267.671875 C37.19400145 268.32286065 37.19400145 268.32286065 34.859375 269.38671875 C11.87160007 277.74270442 -21.40376585 275.75747353 -43.6875 266.3125 C-45.60047974 265.63934011 -47.51355803 264.96644821 -49.42822266 264.2980957 C-58.12241862 261.21117461 -65.86706773 257.18071909 -73.6875 252.3125 C-74.55375 251.77367187 -75.42 251.23484375 -76.3125 250.6796875 C-81.12028325 247.57736791 -85.42486228 244.11740481 -89.6875 240.3125 C-90.33589844 239.76722656 -90.98429688 239.22195312 -91.65234375 238.66015625 C-95.8709295 235.08933799 -99.58415027 231.33785597 -103.14453125 227.109375 C-104.64989123 225.3066419 -104.64989123 225.3066419 -106.28125 223.73828125 C-108.61651347 221.37058357 -110.6875 218.70728033 -110.6875 215.3125 C-111.6775 214.9825 -112.6675 214.6525 -113.6875 214.3125 C-115.25117567 211.9178424 -116.64491688 209.57158383 -118 207.0625 C-118.39735352 206.33522705 -118.79470703 205.6079541 -119.20410156 204.85864258 C-120.38023971 202.68421551 -121.53690254 200.50052978 -122.6875 198.3125 C-123.26371094 197.22839844 -123.83992187 196.14429688 -124.43359375 195.02734375 C-128.59112555 186.65828623 -130.94967179 177.95495393 -133.07006836 168.89575195 C-133.51151497 167.04879797 -133.98473171 165.20932191 -134.47875977 163.37573242 C-136.69606425 154.76655644 -137.28498683 146.49234835 -137.25 137.625 C-137.25018127 136.91272247 -137.25036255 136.20044495 -137.25054932 135.46658325 C-137.19934938 121.20660696 -134.90539043 107.95890376 -130.6875 94.3125 C-130.43661621 93.49958496 -130.18573242 92.68666992 -129.92724609 91.84912109 C-126.98305634 82.64926859 -122.77075009 74.5266512 -117.6875 66.3125 C-116.37961352 63.93644747 -115.0960931 61.54987498 -113.828125 59.15234375 C-112.63122032 57.22172011 -111.31183927 55.89239217 -109.6875 54.3125 C-108.54551483 52.86742872 -107.42161259 51.40795244 -106.3125 49.9375 C-103.62886202 46.45995246 -100.87383323 43.34710308 -97.6875 40.3125 C-96.97207031 39.56484375 -96.25664063 38.8171875 -95.51953125 38.046875 C-94.72933594 37.22703125 -93.93914063 36.4071875 -93.125 35.5625 C-92.00931641 34.39460938 -92.00931641 34.39460938 -90.87109375 33.203125 C-88.6875 31.3125 -88.6875 31.3125 -86.53515625 30.796875 C-85.92542969 30.63703125 -85.31570313 30.4771875 -84.6875 30.3125 C-84.42710937 29.73242188 -84.16671875 29.15234375 -83.8984375 28.5546875 C-81.97591873 24.99492693 -78.71914411 23.48078067 -75.3125 21.4375 C-74.58933594 20.99768799 -73.86617187 20.55787598 -73.12109375 20.10473633 C-63.19103093 14.13241868 -53.47601087 9.66112246 -42.375 6.40625 C-39.53321306 5.56334709 -36.7786987 4.64658041 -34 3.625 C-23.02222011 -0.00557803 -11.43970319 -0.05643052 0 0 Z " fill="#DD5834" transform="translate(659.6875,4.6875)"/>
<path d="M0 0 C11.55 0 23.1 0 35 0 C35 0.66 35 1.32 35 2 C36.8871875 1.938125 36.8871875 1.938125 38.8125 1.875 C44.34936163 1.85736668 49.59720735 2.86894808 55 4 C55 4.66 55 5.32 55 6 C56.2375 6.144375 57.475 6.28875 58.75 6.4375 C61.56504499 6.78688502 64.2701497 7.20379366 67 8 C67 8.66 67 9.32 67 10 C68.3921875 10.061875 68.3921875 10.061875 69.8125 10.125 C75.47322894 10.90737717 80.13159185 14.19298989 85 17 C86.98568035 18.03468401 88.98646275 19.02044134 91 20 C91 20.66 91 21.32 91 22 C92.98 22.66 94.96 23.32 97 24 C97 24.66 97 25.32 97 26 C97.763125 26.268125 98.52625 26.53625 99.3125 26.8125 C101.90881123 27.95970729 103.1250348 28.94646668 105 31 C105.66 31.33 106.32 31.66 107 32 C107 32.66 107 33.32 107 34 C108.32 34.66 109.64 35.32 111 36 C111 36.66 111 37.32 111 38 C112.32 38.66 113.64 39.32 115 40 C115 40.66 115 41.32 115 42 C116.32 42.66 117.64 43.32 119 44 C119 44.66 119 45.32 119 46 C119.66 46 120.32 46 121 46 C121.2475 46.5775 121.495 47.155 121.75 47.75 C122.93990475 50.13449889 122.93990475 50.13449889 125.125 52.125 C127 54 127 54 127 56 C127.66 56 128.32 56 129 56 C129.99 58.97 129.99 58.97 131 62 C131.66 62 132.32 62 133 62 C133.556875 63.1446875 133.556875 63.1446875 134.125 64.3125 C135.18235052 66.45770153 136.30458301 68.52826116 137.5 70.6015625 C140.48740461 75.81515804 142.73118733 79.95171486 143 86 C143.66 86 144.32 86 145 86 C146.13764351 90.26616316 147 93.56486311 147 98 C147.66 98 148.32 98 149 98 C150.34495828 105.09705662 151.24091535 111.7725395 151 119 C151.66 119 152.32 119 153 119 C153.02465504 123.39656173 153.04283842 127.7930872 153.05493164 132.18969727 C153.05997121 133.68644918 153.06680287 135.18319616 153.07543945 136.67993164 C153.08752159 138.82699807 153.09323191 140.97399962 153.09765625 143.12109375 C153.10551147 145.06133423 153.10551147 145.06133423 153.11352539 147.04077148 C153 150 153 150 152 151 C151.73970663 152.37780468 151.53330175 153.76590141 151.3515625 155.15625 C151.17367187 156.44402344 151.17367187 156.44402344 150.9921875 157.7578125 C150.75164374 159.55421379 150.51453544 161.35107922 150.28125 163.1484375 C149.45771895 169.05333034 148.09236634 174.42079289 146 180 C145.54238281 181.22847656 145.08476563 182.45695313 144.61328125 183.72265625 C144.18402344 184.82480469 143.75476563 185.92695313 143.3125 187.0625 C142.87550781 188.18785156 142.43851563 189.31320312 141.98828125 190.47265625 C141.66214844 191.30667969 141.33601563 192.14070312 141 193 C140.34 193 139.68 193 139 193 C138.85884766 194.32644531 138.85884766 194.32644531 138.71484375 195.6796875 C137.93435736 199.30489753 136.77802764 201.18631676 134.5625 204.125 C132.41101782 207.00861495 130.50189378 209.72451306 129 213 C128.34 213 127.68 213 127 213 C126.6596875 214.3303125 126.6596875 214.3303125 126.3125 215.6875 C124.7812131 219.55217646 123.02955772 221.17241279 120 224 C118.84346948 225.32406532 117.69831889 226.65812547 116.5625 228 C113.60186134 231.41313802 110.62658493 234.3011461 107 237 C106.34 237 105.68 237 105 237 C105 237.66 105 238.32 105 239 C103.3203125 240.5078125 103.3203125 240.5078125 101.125 242.125 C100.40570313 242.66382813 99.68640625 243.20265625 98.9453125 243.7578125 C97 245 97 245 95 245 C95 245.66 95 246.32 95 247 C92.03 247.99 92.03 247.99 89 249 C89 249.66 89 250.32 89 251 C85.535 251.99 85.535 251.99 82 253 C82 253.66 82 254.32 82 255 C79.58660204 256.00858422 77.16981325 257.00702673 74.75 258 C74.06808594 258.28617188 73.38617188 258.57234375 72.68359375 258.8671875 C69.18584265 260.29345494 66.83099811 261 63 261 C63 261.66 63 262.32 63 263 C54.57142857 265.28571429 54.57142857 265.28571429 50 265 C50 265.66 50 266.32 50 267 C39.85442495 268.63146793 30.00594458 269.31909116 19.73876953 269.26074219 C17.5013522 269.25000649 15.2647373 269.26072226 13.02734375 269.2734375 C3.5218583 269.28125451 -5.61025875 268.50992542 -15 267 C-15 266.34 -15 265.68 -15 265 C-15.60328125 264.93941406 -16.2065625 264.87882812 -16.828125 264.81640625 C-18.02695312 264.69072266 -18.02695312 264.69072266 -19.25 264.5625 C-20.03890625 264.48128906 -20.8278125 264.40007812 -21.640625 264.31640625 C-23.82364639 264.02365007 -25.8773182 263.57935581 -28 263 C-28 262.34 -28 261.68 -28 261 C-28.95003906 260.92910156 -29.90007812 260.85820313 -30.87890625 260.78515625 C-35.99925793 260.05367744 -40.34743201 257.71682654 -44.9375 255.4375 C-45.81212891 255.01275391 -46.68675781 254.58800781 -47.58789062 254.15039062 C-49.72961493 253.108787 -51.86661853 252.0585578 -54 251 C-54 250.34 -54 249.68 -54 249 C-55.05767578 248.62875 -55.05767578 248.62875 -56.13671875 248.25 C-59.36887443 246.83896341 -61.96328902 245.0749274 -64.8125 243 C-65.78832031 242.29875 -66.76414062 241.5975 -67.76953125 240.875 C-68.87361328 239.946875 -68.87361328 239.946875 -70 239 C-70 238.34 -70 237.68 -70 237 C-70.721875 236.79375 -71.44375 236.5875 -72.1875 236.375 C-75.20396843 234.9002821 -76.71546723 233.19932731 -78.75390625 230.5703125 C-80.12087427 228.78620611 -80.12087427 228.78620611 -82.4375 226.5625 C-84.44009457 224.55990543 -86.36692004 222.5497854 -88.25 220.4375 C-88.75015625 219.87933594 -89.2503125 219.32117188 -89.765625 218.74609375 C-91.11592413 216.83601872 -91.5800594 215.28467682 -92 213 C-92.66 213 -93.32 213 -94 213 C-95.67191758 210.53033015 -97.19791562 208.07783859 -98.6875 205.5 C-99.3525354 204.3543457 -99.3525354 204.3543457 -100.03100586 203.18554688 C-111.79399921 182.53604437 -111.79399921 182.53604437 -112 171 C-112.66 171 -113.32 171 -114 171 C-114.12846313 170.09906616 -114.12846313 170.09906616 -114.25952148 169.17993164 C-114.64788015 166.47348342 -115.04260329 163.76800164 -115.4375 161.0625 C-115.57220703 160.11697266 -115.70691406 159.17144531 -115.84570312 158.19726562 C-115.97783203 157.29814453 -116.10996094 156.39902344 -116.24609375 155.47265625 C-116.36654053 154.64000244 -116.4869873 153.80734863 -116.61108398 152.94946289 C-116.81183994 151.00312641 -116.81183994 151.00312641 -118 150 C-118.10012401 147.79349344 -118.1308118 145.58377614 -118.1328125 143.375 C-118.13376923 142.71290527 -118.13472595 142.05081055 -118.13571167 141.36865234 C-118.13639326 139.96647039 -118.13454042 138.5642853 -118.13037109 137.16210938 C-118.12502246 135.00904287 -118.1303167 132.85618498 -118.13671875 130.703125 C-118.13605796 129.34374954 -118.13477679 127.9843742 -118.1328125 126.625 C-118.13168457 125.37976563 -118.13055664 124.13453125 -118.12939453 122.8515625 C-118 120 -118 120 -117 119 C-116.73970663 117.62219532 -116.53330175 116.23409859 -116.3515625 114.84375 C-116.23296875 113.98523438 -116.114375 113.12671875 -115.9921875 112.2421875 C-115.75164374 110.44578621 -115.51453544 108.64892078 -115.28125 106.8515625 C-114.55843076 101.66879476 -113.48492223 96.91248879 -111.69677734 91.99023438 C-111.00415571 90.01187013 -110.47795702 88.03974011 -110 86 C-109.34 86 -108.68 86 -108 86 C-107.690625 84.081875 -107.690625 84.081875 -107.375 82.125 C-106.3104223 77.32690334 -104.28982004 73.74844452 -101.65625 69.63671875 C-99.32201488 65.92066048 -97.32586713 62.04124534 -95.296875 58.15234375 C-94 56 -94 56 -92 55 C-91.690625 54.38125 -91.38125 53.7625 -91.0625 53.125 C-89.96395046 50.92790093 -88.75875571 49.68228807 -87 48 C-86.67 47.34 -86.34 46.68 -86 46 C-85.34 46 -84.68 46 -84 46 C-83.34 44.68 -82.68 43.36 -82 42 C-81.34 42 -80.68 42 -80 42 C-79.34 40.68 -78.68 39.36 -78 38 C-77.34 38 -76.68 38 -76 38 C-75.34 36.68 -74.68 35.36 -74 34 C-73.34 34 -72.68 34 -72 34 C-72 33.34 -72 32.68 -72 32 C-71.38125 31.731875 -70.7625 31.46375 -70.125 31.1875 C-67.7004767 30.04443152 -67.7004767 30.04443152 -66 27 C-65.01 26.67 -64.02 26.34 -63 26 C-62.525625 25.505 -62.05125 25.01 -61.5625 24.5 C-59.74806281 22.75814029 -58.44440923 22.42144987 -56 22 C-56 21.34 -56 20.68 -56 20 C-55.236875 19.62875 -54.47375 19.2575 -53.6875 18.875 C-51.54229847 17.81764948 -49.47173884 16.69541699 -47.3984375 15.5 C-42.18484196 12.51259539 -38.04828514 10.26881267 -32 10 C-32 9.34 -32 8.68 -32 8 C-30.7625 7.67 -29.525 7.34 -28.25 7 C-27.20585937 6.7215625 -27.20585937 6.7215625 -26.140625 6.4375 C-24 6 -24 6 -20 6 C-20 5.34 -20 4.68 -20 4 C-13.2168636 2.57997892 -6.93302093 1.77268784 0 2 C0 1.34 0 0.68 0 0 Z " fill="#9DDFEC" transform="translate(383,266)"/>
<path d="M0 0 C2.46930151 1.65425934 4.83158138 3.25975907 7.04296875 5.24609375 C7.04296875 5.90609375 7.04296875 6.56609375 7.04296875 7.24609375 C8.03296875 7.57609375 9.02296875 7.90609375 10.04296875 8.24609375 C18.85402624 19.46016692 22.10294116 31.45027187 20.54296875 45.55859375 C18.69004964 55.99214499 13.68977989 66.78703001 5.04296875 73.24609375 C-4.22336761 79.62619419 -12.12479242 82.77297164 -23.39453125 82.68359375 C-24.28462891 82.70357422 -25.17472656 82.72355469 -26.09179688 82.74414062 C-37.63357225 82.73570982 -47.24323194 76.70995972 -55.64453125 69.12109375 C-64.54752523 59.78330239 -67.56523981 47.54147114 -67.32421875 35.03515625 C-66.05134501 21.90018259 -60.49471629 11.76089423 -50.5390625 3.15625 C-35.63064582 -8.05468973 -16.20659233 -9.61262874 0 0 Z " fill="#899CA2" transform="translate(551.95703125,491.75390625)"/>
<path d="M0 0 C2.46930151 1.65425934 4.83158138 3.25975907 7.04296875 5.24609375 C7.04296875 5.90609375 7.04296875 6.56609375 7.04296875 7.24609375 C8.03296875 7.57609375 9.02296875 7.90609375 10.04296875 8.24609375 C18.85402624 19.46016692 22.10294116 31.45027187 20.54296875 45.55859375 C18.69004964 55.99214499 13.68977989 66.78703001 5.04296875 73.24609375 C-4.22336761 79.62619419 -12.12479242 82.77297164 -23.39453125 82.68359375 C-24.28462891 82.70357422 -25.17472656 82.72355469 -26.09179688 82.74414062 C-37.63357225 82.73570982 -47.24323194 76.70995972 -55.64453125 69.12109375 C-64.54752523 59.78330239 -67.56523981 47.54147114 -67.32421875 35.03515625 C-66.05134501 21.90018259 -60.49471629 11.76089423 -50.5390625 3.15625 C-35.63064582 -8.05468973 -16.20659233 -9.61262874 0 0 Z " fill="#899CA2" transform="translate(294.95703125,490.75390625)"/>
<path d="M0 0 C2.46930151 1.65425934 4.83158138 3.25975907 7.04296875 5.24609375 C7.04296875 5.90609375 7.04296875 6.56609375 7.04296875 7.24609375 C8.03296875 7.57609375 9.02296875 7.90609375 10.04296875 8.24609375 C18.85402624 19.46016692 22.10294116 31.45027187 20.54296875 45.55859375 C18.69004964 55.99214499 13.68977989 66.78703001 5.04296875 73.24609375 C-4.22336761 79.62619419 -12.12479242 82.77297164 -23.39453125 82.68359375 C-24.28462891 82.70357422 -25.17472656 82.72355469 -26.09179688 82.74414062 C-37.63357225 82.73570982 -47.24323194 76.70995972 -55.64453125 69.12109375 C-64.54752523 59.78330239 -67.56523981 47.54147114 -67.32421875 35.03515625 C-66.05134501 21.90018259 -60.49471629 11.76089423 -50.5390625 3.15625 C-35.63064582 -8.05468973 -16.20659233 -9.61262874 0 0 Z " fill="#899CA2" transform="translate(551.95703125,234.75390625)"/>
<path d="M0 0 C2.46930151 1.65425934 4.83158138 3.25975907 7.04296875 5.24609375 C7.04296875 5.90609375 7.04296875 6.56609375 7.04296875 7.24609375 C8.03296875 7.57609375 9.02296875 7.90609375 10.04296875 8.24609375 C18.85402624 19.46016692 22.10294116 31.45027187 20.54296875 45.55859375 C18.69004964 55.99214499 13.68977989 66.78703001 5.04296875 73.24609375 C-4.22336761 79.62619419 -12.12479242 82.77297164 -23.39453125 82.68359375 C-24.28462891 82.70357422 -25.17472656 82.72355469 -26.09179688 82.74414062 C-37.63357225 82.73570982 -47.24323194 76.70995972 -55.64453125 69.12109375 C-64.54752523 59.78330239 -67.56523981 47.54147114 -67.32421875 35.03515625 C-66.05134501 21.90018259 -60.49471629 11.76089423 -50.5390625 3.15625 C-35.63064582 -8.05468973 -16.20659233 -9.61262874 0 0 Z " fill="#899CA2" transform="translate(294.95703125,234.75390625)"/>
</svg>
